<svg width="25" height="23" viewBox="0 0 25 23" fill="none" xmlns="http://www.w3.org/2000/svg">

<!--    gears icon-->
    <g id="gears">
        <g id="gears-svgrepo-com 1" clip-path="url(#clip0_1_4844)">
            <g id="Group">
                <g id="bigg">
                    <g id="Group 15">
                        <path id="big-gear" d="M14.566 11.7999L13.6247 10.9443C13.7274 10.7522 13.8173 10.5548 13.8942 10.3529H15.2253C15.6627 10.3529 16.0175 10.0305 16.0175 9.63275V7.52167C16.0175 7.12402 15.6628 6.80153 15.2253 6.80153H13.8941C13.8173 6.59965 13.7273 6.40233 13.6247 6.21023L14.566 5.35447C14.8754 5.07326 14.8754 4.61728 14.566 4.33607L12.924 2.84333C12.6146 2.56219 12.1132 2.56219 11.8038 2.84333L10.8624 3.69908C10.6511 3.60579 10.4341 3.52395 10.212 3.45416V2.24395C10.212 1.8463 9.85733 1.5238 9.41984 1.5238H7.09766C6.66024 1.5238 6.3055 1.84623 6.3055 2.24395V3.45416C6.08343 3.52402 5.86638 3.60571 5.65507 3.69908L4.71382 2.84333C4.56529 2.7083 4.36376 2.63242 4.15366 2.63242C3.94356 2.63242 3.7421 2.7083 3.5935 2.84333L1.95139 4.33607C1.80287 4.47109 1.71939 4.65431 1.71939 4.84531C1.71939 5.03631 1.80287 5.21945 1.95139 5.35455L2.89273 6.21031C2.7901 6.40233 2.70008 6.59965 2.62331 6.8016H1.29216C0.854667 6.8016 0.5 7.12402 0.5 7.52167V9.63282C0.5 10.0305 0.854667 10.353 1.29216 10.353H2.62331C2.70024 10.5548 2.7901 10.7522 2.89281 10.9443L1.95147 11.8C1.64214 12.0812 1.64214 12.5372 1.95147 12.8184L3.5935 14.3112C3.90291 14.5922 4.40432 14.5924 4.71374 14.3112L5.65507 13.4554C5.8663 13.5488 6.08343 13.6306 6.3055 13.7004V14.9106C6.3055 15.3083 6.66016 15.6308 7.09766 15.6308H9.41992C9.85733 15.6308 10.2121 15.3083 10.2121 14.9106V13.7004C10.4341 13.6305 10.6512 13.5488 10.8625 13.4554L11.8038 14.3112C12.1133 14.5923 12.6147 14.5923 12.9241 14.3112L14.5661 12.8184C14.8754 12.5371 14.8754 12.0812 14.566 11.7999ZM12.5265 9.47172C12.4174 9.9036 12.2309 10.3129 11.9722 10.6881C11.776 10.9725 11.8222 11.3424 12.0833 11.5797L12.8857 12.3092L12.3639 12.7836L11.5614 12.0541C11.3002 11.8167 10.8935 11.775 10.5806 11.953C10.1677 12.1883 9.71762 12.3579 9.24279 12.4569C8.88287 12.532 8.62784 12.8232 8.62784 13.1588V14.1905H7.8899V13.1588C7.8899 12.8232 7.63487 12.5321 7.27495 12.4569C6.80012 12.3579 6.35002 12.1883 5.93709 11.953C5.62453 11.775 5.21749 11.8166 4.95632 12.0541L4.15382 12.7836L3.63204 12.3092L4.43446 11.5797C4.69556 11.3424 4.74162 10.9725 4.54558 10.6881C4.28683 10.3129 4.10032 9.9036 3.99123 9.47172C3.90865 9.14459 3.5884 8.91275 3.21919 8.91275H2.08424V8.24189H3.21895C3.58808 8.24189 3.90832 8.01005 3.99099 7.683C4.10016 7.25104 4.28659 6.84186 4.54533 6.46669C4.74154 6.18232 4.69539 5.81236 4.4343 5.57501L3.6318 4.84546L4.15366 4.37111L4.95608 5.10066C5.21717 5.33809 5.6242 5.37974 5.93693 5.2016C6.3497 4.96637 6.7998 4.7969 7.27471 4.6978C7.63463 4.62272 7.88966 4.33152 7.88966 3.99587V2.9641H8.6276V3.99572C8.6276 4.33137 8.88263 4.6225 9.24255 4.69765C9.71754 4.79675 10.1676 4.96623 10.5803 5.20145C10.8931 5.37975 11.3002 5.33802 11.5612 5.10052L12.3637 4.37097L12.8855 4.84531L12.0829 5.57486C11.8219 5.81229 11.7758 6.18217 11.9719 6.46654C12.2307 6.84171 12.4171 7.25097 12.5263 7.68285C12.6088 8.0099 12.9292 8.24175 13.2983 8.24175H14.433V8.9126H13.2983C12.9293 8.91267 12.6091 9.14452 12.5265 9.47172Z" fill="#E84949"/>
                    </g>
                    <path id="Vector" d="M8.25871 5.81006C6.58025 5.81006 5.21475 7.05142 5.21475 8.57729C5.21475 10.1032 6.58025 11.3445 8.25871 11.3445C9.93718 11.3445 11.3027 10.1032 11.3027 8.57729C11.3027 7.05142 9.93726 5.81006 8.25871 5.81006ZM8.25871 9.90431C7.45378 9.90431 6.79899 9.30905 6.79899 8.57729C6.79899 7.84554 7.45386 7.25028 8.25871 7.25028C9.06356 7.25028 9.71843 7.84554 9.71843 8.57729C9.71843 9.30905 9.06364 9.90431 8.25871 9.90431Z" fill="#E84949"/>
                </g>
                <g id="small">
                    <g id="Group 14">
                        <path id="small-gear" d="M23.9811 16.8324C24.3253 16.7746 24.5528 16.4742 24.4893 16.1614L24.1904 14.6882C24.16 14.5379 24.065 14.4049 23.9267 14.3183C23.7882 14.2317 23.6175 14.1985 23.4523 14.2262L22.5731 14.3736C22.505 14.2672 22.4312 14.1639 22.3523 14.0638L22.8592 13.3945C22.9545 13.2686 22.9909 13.1135 22.9604 12.9633C22.93 12.813 22.835 12.6799 22.6966 12.5933L21.3394 11.7438C21.0514 11.5635 20.6566 11.6294 20.4581 11.8915L19.9512 12.5609C19.8202 12.5295 19.6877 12.5038 19.5541 12.4839L19.3919 11.6847C19.3284 11.3719 18.9975 11.1648 18.6538 11.2227L17.0333 11.4945C16.868 11.5222 16.7217 11.6085 16.6264 11.7343C16.5311 11.8602 16.4947 12.0152 16.5251 12.1655L16.6873 12.9647C16.5702 13.0267 16.4565 13.0937 16.3465 13.1655L15.6102 12.7047C15.4717 12.6181 15.3011 12.5851 15.1359 12.6126C14.9706 12.6403 14.8242 12.7266 14.7289 12.8525L13.7945 14.0864C13.6991 14.2122 13.6628 14.3673 13.6932 14.5175C13.7237 14.6678 13.8186 14.8009 13.9571 14.8875L14.6933 15.3483C14.6587 15.4674 14.6305 15.5878 14.6086 15.7094L13.7294 15.8568C13.5641 15.8845 13.4177 15.9708 13.3225 16.0966C13.2271 16.2225 13.1908 16.3776 13.2212 16.5278L13.5202 18.0009C13.5837 18.3138 13.9141 18.521 14.2583 18.4629L15.1375 18.3155C15.2056 18.4219 15.2794 18.5253 15.3583 18.6253L14.8514 19.2946C14.7562 19.4205 14.7197 19.5755 14.7502 19.7258C14.7807 19.8761 14.8756 20.0091 15.014 20.0958L16.3713 20.9453C16.6593 21.1256 17.0541 21.0596 17.2525 20.7975L17.7594 20.1282C17.8904 20.1596 18.0228 20.1852 18.1566 20.2052L18.3188 21.0044C18.3751 21.2819 18.6415 21.4761 18.9412 21.4761C18.9794 21.4761 19.0181 21.473 19.0569 21.4665L20.6773 21.1947C20.8426 21.1671 20.989 21.0807 21.0842 20.955C21.1795 20.8291 21.216 20.674 21.1855 20.5237L21.0233 19.7245C21.1404 19.6625 21.2541 19.5955 21.3642 19.5237L22.1003 19.9845C22.2388 20.0712 22.4093 20.1044 22.5747 20.0766C22.74 20.0489 22.8863 19.9626 22.9816 19.8367L23.9161 18.6029C24.1145 18.3408 24.0418 17.9822 23.7536 17.8018L23.0173 17.3409C23.0519 17.2218 23.0801 17.1014 23.102 16.9799L23.9811 16.8324ZM22.4066 15.9249C22.116 15.9736 21.9011 16.1984 21.8884 16.4667C21.8739 16.7734 21.8034 17.0735 21.679 17.359C21.5701 17.6086 21.6654 17.8935 21.9087 18.0458L22.5129 18.4241L22.2972 18.7089L21.6931 18.3308C21.4496 18.1784 21.1229 18.1992 20.9053 18.3807C20.6564 18.5882 20.373 18.7552 20.063 18.877C19.7918 18.9835 19.6375 19.2463 19.6911 19.5103L19.8242 20.1664L19.4501 20.2291L19.3171 19.5732C19.2635 19.3091 19.0163 19.1136 18.7212 19.1021C18.3836 19.0888 18.0533 19.0248 17.7394 18.9117C17.6632 18.8843 17.5843 18.8711 17.5061 18.8711C17.3024 18.8711 17.105 18.9608 16.984 19.1206L16.568 19.6698L16.2546 19.4737L16.6706 18.9245C16.8381 18.7033 16.8153 18.4063 16.6156 18.2084C16.3874 17.982 16.2037 17.7244 16.0696 17.4425C15.9524 17.196 15.6627 17.0557 15.373 17.1045L14.6514 17.2255L14.5823 16.8855L15.304 16.7645C15.5946 16.7158 15.8095 16.491 15.8221 16.2227C15.8367 15.916 15.9071 15.6158 16.0316 15.3302C16.1404 15.0806 16.0451 14.7958 15.8017 14.6434L15.1975 14.2653L15.4133 13.9804L16.0175 14.3586C16.261 14.511 16.5875 14.4902 16.8052 14.3087C17.0542 14.1011 17.3376 13.9341 17.6477 13.8123C17.9188 13.7057 18.073 13.443 18.0194 13.179L17.8863 12.523L18.2604 12.4603L18.3935 13.1162C18.4471 13.3804 18.6943 13.5758 18.9895 13.5873C19.3268 13.6005 19.657 13.6645 19.971 13.7777C20.2459 13.8767 20.5591 13.7899 20.7265 13.5688L21.1426 13.0195L21.456 13.2156L21.04 13.7649C20.8724 13.9862 20.8952 14.2832 21.0949 14.4811C21.3232 14.7073 21.5069 14.9649 21.6409 15.2468C21.7579 15.4932 22.0473 15.6336 22.3375 15.5848L23.0591 15.4638L23.1281 15.8039L22.4066 15.9249Z" fill="#E84949"/>
                    </g>
                    <path id="Vector_2" d="M20.1208 14.6737C19.6299 14.3664 19.0365 14.2514 18.4504 14.3496C17.8642 14.4479 17.3552 14.7479 17.0172 15.1942C16.3193 16.1156 16.5762 17.3813 17.5897 18.0157C17.9753 18.2571 18.4158 18.3728 18.8519 18.3728C19.5621 18.3728 20.261 18.0659 20.6934 17.4951C21.3911 16.5738 21.1343 15.308 20.1208 14.6737ZM19.6495 16.8417C19.348 17.2398 18.7464 17.3407 18.3086 17.0667C17.8707 16.7926 17.7596 16.2457 18.0611 15.8477C18.0612 15.8476 18.0612 15.8476 18.0612 15.8476C18.2071 15.6547 18.4271 15.5252 18.6804 15.4827C18.7393 15.4729 18.7986 15.4679 18.8573 15.4679C19.0507 15.4679 19.2394 15.5209 19.4021 15.6227C19.84 15.8968 19.951 16.4437 19.6495 16.8417Z" fill="#E84949"/>
                </g>
            </g>
        </g>
        <defs>
            <clipPath id="clip0_1_4844">
                <rect width="24" height="21.8182" fill="white" transform="translate(0.5 0.590942)"/>
            </clipPath>
        </defs>
    </g>

<!--    html 5 icon-->
    <g id="html5">
        <g clip-path="url(#clip0_1_4700)">
            <path d="M37.2872 8.56567L34.4741 40.0798L21.829 43.5854L9.21871 40.0847L6.40851 8.56567H37.2872Z" fill="#E44D26"/>
            <path d="M21.8478 40.9058L32.0657 38.0731L34.4696 11.1428H21.8478V40.9058Z" fill="#F16529"/>
            <path d="M16.3792 18.8742H21.8478V15.0085H12.1545L12.247 16.0456L13.1972 26.6984H21.8478V22.8327H16.7325L16.3792 18.8742ZM17.2505 28.6313H13.3699L13.9114 34.701L21.83 36.8991L21.8478 36.8943V32.8723L21.8309 32.8768L17.5257 31.7143L17.2505 28.6313Z" fill="#EBEBEB"/>
            <path d="M9.28137 0.00012207H11.2459V1.94101H13.043V0.00012207H15.0076V5.87761H13.0431V3.90949H11.246V5.87761H9.28149V0.00012207H9.28137ZM17.5908 1.94924H15.8616V0.00012207H21.2859V1.94924H19.5557V5.87761H17.5912V1.94924H17.5911H17.5908ZM22.1468 0.00012207H24.1951L25.4552 2.06532L26.714 0.00012207H28.7632V5.87761H26.8067V2.9644L25.4552 5.05417H25.4213L24.0689 2.9644V5.87761H22.1468V0.00012207ZM29.7409 0.00012207H31.706V3.93491H34.4686V5.87761H29.7407V0.00012207H29.7409Z" fill="black"/>
            <path d="M21.8345 26.6984H26.5946L26.1458 31.7119L21.8344 32.8756V36.8973L29.7592 34.701L29.8173 34.0479L30.7259 23.8708L30.8202 22.8327H21.8345V26.6984ZM21.8345 18.8648V18.8742H31.1719L31.2494 18.0054L31.4256 16.0456L31.518 15.0085H21.8345V18.8649V18.8648Z" fill="white"/>
        </g>
        <defs>
            <clipPath id="clip0_1_4700">
                <rect width="43.6957" height="43.6957" fill="white"/>
            </clipPath>
        </defs>
    </g>

<!--    css 3 icon-->
    <g id="css3">
        <path d="M39.3687 45.5357L26.1737 49.0886L12.9785 45.5357L9.93365 12.5482H42.414L39.3687 45.5357Z" fill="#2062AF"/>
        <path d="M26.1736 15.2202V46.2549L26.2034 46.263L36.8816 43.3876L39.3463 15.2202H26.1736Z" fill="#3C9CD7"/>
        <path d="M18.685 7.70169V5.73828H21.5496V3.58984H16.5366V9.66219H21.5496V7.70169H18.685ZM26.7027 5.73828H28.7055V3.58984H23.6919V5.73828C24.3627 6.40902 24.7125 6.73006 25.6826 7.70014C25.1155 7.70014 23.6919 7.70217 23.6919 7.70208V9.66219H28.7055V7.70169L26.7027 5.73828ZM33.8085 5.73828H35.8112V3.58984H30.7974V5.73828C31.4682 6.40902 31.8182 6.73006 32.7883 7.70014C32.2214 7.70014 30.7974 7.70217 30.7974 7.70208V9.66219H35.8113V7.70169L33.8085 5.73828Z" fill="black"/>
        <path d="M26.1619 23.4683L16.7178 27.4016L17.031 31.2957L26.1619 27.3917L35.8748 23.239L36.2775 19.2554L26.1619 23.4683Z" fill="white"/>
        <path d="M16.7177 27.4016L17.0309 31.2958L26.1618 27.3917V23.4684L16.7177 27.4016Z" fill="url(#paint0_linear_1_4709)"/>
        <path d="M36.2775 19.2555L26.1619 23.4684V27.3917L35.8748 23.239L36.2775 19.2555Z" fill="url(#paint1_linear_1_4709)"/>
        <path d="M16.7322 27.4016L17.0455 31.2958L31.0557 31.3404L30.7423 36.5326L26.1322 37.8305L21.7004 36.7115L21.4319 33.4888H17.3141L17.8512 39.7104L26.1769 42.1721L34.4575 39.7551L35.5318 27.4016H16.7322Z" fill="url(#paint2_linear_1_4709)"/>
        <path opacity="0.05" d="M26.1619 27.4016H16.7178L17.031 31.2958L26.1619 31.3249V27.4016ZM26.1619 37.8181L26.1172 37.8306L21.686 36.7116L21.4175 33.4889H17.2997L17.8368 39.7105L26.1619 42.1722V37.8181Z" fill="black"/>
        <path d="M15.8673 19.2555H36.2776L35.8749 23.2391H16.3596L15.8673 19.2555Z" fill="url(#paint3_linear_1_4709)"/>
        <path opacity="0.05" d="M26.1619 19.2555H15.8673L16.3596 23.2391H26.1619V19.2555Z" fill="black"/>
        <defs>
            <linearGradient id="paint0_linear_1_4709" x1="21.4398" y1="31.2959" x2="21.4398" y2="23.4685" gradientUnits="userSpaceOnUse">
                <stop offset="0.387" stop-color="#D1D3D4" stop-opacity="0"/>
                <stop offset="1" stop-color="#D1D3D4"/>
            </linearGradient>
            <linearGradient id="paint1_linear_1_4709" x1="31.2196" y1="27.3918" x2="31.2196" y2="19.2556" gradientUnits="userSpaceOnUse">
                <stop offset="0.387" stop-color="#D1D3D4" stop-opacity="0"/>
                <stop offset="1" stop-color="#D1D3D4"/>
            </linearGradient>
            <linearGradient id="paint2_linear_1_4709" x1="16.7322" y1="34.787" x2="35.5317" y2="34.787" gradientUnits="userSpaceOnUse">
                <stop stop-color="#E8E7E5"/>
                <stop offset="1" stop-color="white"/>
            </linearGradient>
            <linearGradient id="paint3_linear_1_4709" x1="15.8673" y1="21.2473" x2="36.2775" y2="21.2473" gradientUnits="userSpaceOnUse">
                <stop stop-color="#E8E7E5"/>
                <stop offset="1" stop-color="white"/>
            </linearGradient>
        </defs>
    </g>

<!--    js icon-->


<!--    bootstrap icon-->
    <g id="bootstrap">
        <g clip-path="url(#clip0_1_4731)">
            <path d="M0.260956 34.5055C0.260956 37.2923 2.51997 39.551 5.30649 39.551H34.3457C37.1327 39.551 39.3914 37.292 39.3914 34.5055V5.46628C39.3914 2.67931 37.1324 0.420593 34.3459 0.420593H5.30664C2.51967 0.420593 0.260956 2.67961 0.260956 5.46613V34.5053V34.5055Z" fill="#563D7C"/>
            <path d="M16.4876 17.7294V12.188H21.3653C21.8299 12.188 22.2778 12.2267 22.7091 12.3042C23.1405 12.3815 23.5222 12.5197 23.854 12.7189C24.1857 12.9181 24.4512 13.1946 24.6504 13.5484C24.8494 13.9024 24.9491 14.3559 24.9491 14.9088C24.9491 15.9044 24.6504 16.6234 24.053 17.0657C23.4558 17.5082 22.6926 17.7294 21.7634 17.7294H16.4876ZM11.2779 8.13971V31.832H22.759C23.8209 31.832 24.8551 31.6993 25.8616 31.4338C26.8681 31.1683 27.764 30.7591 28.5494 30.2061C29.3346 29.653 29.9596 28.9395 30.4241 28.0658C30.8888 27.192 31.121 26.1577 31.121 24.9632C31.121 23.481 30.7615 22.2146 30.0426 21.1639C29.3236 20.113 28.234 19.3775 26.774 18.9571C27.8358 18.4484 28.6379 17.7958 29.1799 16.9994C29.7218 16.203 29.9928 15.2076 29.9928 14.0129C29.9928 12.9069 29.8103 11.9779 29.4452 11.2257C29.0802 10.4736 28.5659 9.87077 27.9022 9.41726C27.2387 8.96374 26.4423 8.6374 25.5131 8.43838C24.584 8.23922 23.5553 8.13971 22.4271 8.13971H11.2779ZM16.4876 27.7836V21.2799H22.1616C23.2898 21.2799 24.1969 21.5397 24.8827 22.0598C25.5684 22.5796 25.9114 23.4478 25.9114 24.6645C25.9114 25.284 25.8063 25.7927 25.5961 26.1909C25.3859 26.5891 25.1039 26.9044 24.7499 27.1366C24.396 27.369 23.9867 27.5348 23.5222 27.6345C23.0575 27.7338 22.571 27.7836 22.0621 27.7836H16.4876Z" fill="white"/>
        </g>
        <defs>
            <clipPath id="clip0_1_4731">
                <rect width="39.1304" height="39.1304" fill="white" transform="translate(0.260956 0.420593)"/>
            </clipPath>
        </defs>
    </g>

<!--    linkedin icon-->
    <g id="linkedin">
        <g clip-path="url(#clip0_1_4776)">
            <path d="M27.2863 0H2.71374C1.215 0 0 1.215 0 2.71374V27.2862C0 28.785 1.215 30 2.71374 30H27.2862C28.785 30 30 28.785 30 27.2862V2.71374C30 1.215 28.785 0 27.2863 0ZM9.28327 25.904C9.28327 26.3402 8.92971 26.6937 8.49353 26.6937H5.13181C4.69563 26.6937 4.34207 26.3402 4.34207 25.904V11.8118C4.34207 11.3756 4.69563 11.022 5.13181 11.022H8.49353C8.92971 11.022 9.28327 11.3756 9.28327 11.8118V25.904ZM6.81267 9.69361C5.04887 9.69361 3.61901 8.26374 3.61901 6.49995C3.61901 4.73615 5.04887 3.30628 6.81267 3.30628C8.57647 3.30628 10.0063 4.73615 10.0063 6.49995C10.0063 8.26374 8.57654 9.69361 6.81267 9.69361ZM26.8516 25.9676C26.8516 26.3686 26.5264 26.6937 26.1254 26.6937H22.5181C22.1171 26.6937 21.7919 26.3686 21.7919 25.9676V19.3575C21.7919 18.3715 22.0812 15.0365 19.215 15.0365C16.9918 15.0365 16.5408 17.3192 16.4503 18.3436V25.9676C16.4503 26.3686 16.1252 26.6937 15.7242 26.6937H12.2352C11.8342 26.6937 11.5091 26.3686 11.5091 25.9676V11.7481C11.5091 11.3471 11.8342 11.022 12.2352 11.022H15.7242C16.1252 11.022 16.4503 11.3471 16.4503 11.7481V12.9776C17.2747 11.7404 18.4998 10.7855 21.1083 10.7855C26.8846 10.7855 26.8516 16.1821 26.8516 19.1472V25.9676Z" fill="white"/>
        </g>
        <defs>
            <clipPath id="clip0_1_4776">
                <rect width="30" height="30" fill="white"/>
            </clipPath>
        </defs>
    </g>

<!--    whatsapp icon-->
    <g id="whatsapp">
        <g clip-path="url(#clip0_1_4778)">
            <path d="M15 2C18.4762 2 21.7344 3.34959 24.1924 5.80762C26.6504 8.26574 28 11.5238 28 15C28 18.4762 26.6504 21.7343 24.1924 24.1924C21.7344 26.6504 18.4762 28 15 28C12.2899 28 9.71288 27.1814 7.51465 25.6289L6.55859 24.9541L5.50098 25.457L3.44434 26.4355L4.40918 24.1865L4.83984 23.1816L4.22656 22.2773C2.76887 20.1252 2 17.6184 2 15C2 11.5238 3.34955 8.26564 5.80762 5.80762C8.26573 3.34957 11.5238 2 15 2Z" stroke="white" stroke-width="4"/>
            <path d="M22.9917 20.0766L22.5421 17.6414C22.5049 17.4403 22.349 17.282 22.1485 17.2419L18.613 16.5348C18.4488 16.5021 18.2795 16.5534 18.1613 16.6716L16.7249 18.108C14.3049 17.0236 12.9617 15.6776 11.7798 13.1536L13.2116 11.7218C13.3298 11.6036 13.3811 11.4341 13.3483 11.2701L12.6412 7.73459C12.6011 7.53403 12.4428 7.37811 12.2417 7.34096L9.80646 6.89137C9.73978 6.87906 9.6711 6.88041 9.60489 6.89547C8.96189 7.0416 8.37519 7.36557 7.90825 7.83262C7.0996 8.64127 6.79058 9.82117 7.01458 11.2449C7.39064 13.6356 8.56198 16.9627 10.7229 19.1322L10.7523 19.1615C12.9204 21.321 16.2474 22.4924 18.6381 22.8685C18.9392 22.9159 19.2294 22.9394 19.5075 22.9394C20.5442 22.9394 21.4128 22.6124 22.0504 21.9748C22.5174 21.5078 22.8415 20.9211 22.9875 20.2781C23.0026 20.212 23.0041 20.1433 22.9917 20.0766Z" fill="white"/>
        </g>
        <defs>
            <clipPath id="clip0_1_4778">
                <rect width="30" height="30" fill="white"/>
            </clipPath>
        </defs>
    </g>

<!--    twitter icon-->
    <g id="twitter">
        <path d="M0.57803 22.5003C1.84538 22.3455 3.13052 22.5122 4.39787 22.304C5.03446 22.2029 5.61758 21.9887 6.19472 21.7625C4.76679 20.8463 3.48153 19.7991 2.2857 18.5437C1.85732 18.0974 2.16666 17.3478 2.79145 17.33C3.30317 17.3537 3.80294 17.3122 4.29077 17.211C3.04718 15.6343 2.08333 13.9385 1.33366 12.0346C1.13142 11.5229 1.72634 11.0053 2.20833 11.1599C2.48795 11.273 2.77353 11.3503 3.06509 11.4098C2.17861 9.27972 1.99415 7.13186 2.48795 4.77565C2.60101 4.2342 3.31498 4.10335 3.67793 4.46033C6.52198 7.25661 10.1157 8.60133 13.9593 9.24389C13.6201 6.61404 15.4885 3.81763 17.9397 2.90129C19.9746 2.14566 22.7056 2.66335 24.0741 4.37686C24.9904 3.79972 26.2576 3.60929 27.2751 3.4308C27.8106 3.34149 28.3283 3.86515 28.0129 4.39465C27.644 5.01346 27.293 5.67381 26.9063 6.30457C27.6917 6.07246 28.5009 5.92967 29.31 5.82855C29.8931 5.75118 30.2441 6.64961 29.798 7.00659C28.8519 7.76222 27.9118 8.62495 26.9063 9.31516C26.8766 15.9968 24.925 21.6017 18.9573 25.4036C13.983 28.581 4.73694 28.0456 0.411481 23.72H0.40551C0.215076 23.6723 0.113953 23.5295 0.0782549 23.3749C-0.0882935 23.125 0.030614 22.8157 0.250775 22.6967C0.334114 22.5954 0.441208 22.518 0.57803 22.5003Z" fill="white"/>

    </g>

    <!--email icon-->
    <g id="email">
        <g clip-path="url(#clip0_1_4787)">
            <path d="M30 6.19559V23.8043C30 25.4282 28.6891 26.7391 27.0652 26.7391H2.93479C1.31086 26.7391 0 25.4282 0 23.8043V6.19559C0 6.14344 0 6.09124 0.00650391 6.03909C0.0847852 4.53909 1.27822 3.34559 2.77822 3.26737C2.83037 3.26086 2.88258 3.26086 2.93473 3.26086H27.0652C27.1173 3.26086 27.176 3.26086 27.2282 3.26737C28.7217 3.34565 29.9152 4.53909 29.9934 6.03258C30 6.08473 30 6.14344 30 6.19559Z" fill="white"/>
            <path d="M27.2283 3.26731C27.176 3.2608 27.1175 3.2608 27.0652 3.2608H15V26.7391H27.0652C28.6891 26.7391 30 25.4282 30 23.8043V6.19559C30 6.14344 30 6.08473 29.9935 6.03252C29.9152 4.53908 28.7217 3.34559 27.2283 3.26731Z" fill="white"/>
            <path d="M29.9935 6.03267C29.9152 4.53917 28.7218 3.34573 27.2283 3.26745C22.435 8.06072 19.7432 10.7525 15 15.4957C13.2006 13.6953 4.54746 5.03663 2.77828 3.2674C1.27828 3.34568 0.0847852 4.53911 0.0065625 6.03911C0 6.09132 0 6.14353 0 6.19568V23.8044C0 25.4283 1.31086 26.7392 2.93479 26.7392H3.91307V9.94568L13.6174 19.6435C13.9957 20.0283 14.4979 20.2175 15.0001 20.2175C15.5022 20.2175 16.0044 20.0283 16.3827 19.6435L26.0871 9.93917V26.7392H27.0653C28.6893 26.7392 30.0001 25.4283 30.0001 23.8044V6.19568C30 6.14353 30 6.08482 29.9935 6.03267Z" fill="#303030" fill-opacity="0.57"/>
            <path d="M16.3826 19.6435L26.0869 9.93917V26.7392H27.0652C28.6891 26.7392 30 25.4283 30 23.8044V6.19568C30 6.14353 30 6.08482 29.9935 6.03261C29.9152 4.53911 28.7218 3.34568 27.2283 3.2674C22.435 8.06072 19.7432 10.7525 15 15.4957V20.2174C15.5021 20.2174 16.0044 20.0283 16.3826 19.6435Z" fill="#303030" fill-opacity="0.57"/>
        </g>
        <defs>
            <clipPath id="clip0_1_4787">
                <rect width="30" height="30" fill="white"/>
            </clipPath>
        </defs>
    </g>

    //github icon
    <g id="github">
        <g clip-path="url(#clip0_1_4795)">
            <path d="M15.4995 0.812317C7.21661 0.812317 0.5 7.55409 0.5 15.8728C0.5 22.5255 4.79726 28.1704 10.76 30.1615C11.5095 30.3004 11.7829 29.8354 11.7829 29.4357C11.7829 29.0786 11.7698 28.1317 11.7626 26.8746C7.58919 27.7857 6.70903 24.8559 6.70903 24.8559C6.02774 23.1159 5.04452 22.6538 5.04452 22.6538C3.68194 21.7189 5.1471 21.7368 5.1471 21.7368C6.65194 21.8428 7.44403 23.2896 7.44403 23.2896C8.78339 25.5909 10.956 24.9255 11.8105 24.5399C11.9455 23.5673 12.334 22.903 12.7623 22.527C9.43226 22.1462 5.93097 20.8552 5.93097 15.0851C5.93097 13.4413 6.515 12.0967 7.47452 11.0428C7.31919 10.662 6.80484 9.13151 7.62064 7.05861C7.62064 7.05861 8.88064 6.65409 11.7456 8.60216C12.9423 8.26828 14.2255 8.10135 15.5015 8.09457C16.7745 8.10135 18.0587 8.2678 19.2573 8.60216C22.1198 6.65409 23.3779 7.05861 23.3779 7.05861C24.1956 9.13151 23.6813 10.662 23.5265 11.0428C24.4884 12.0967 25.069 13.4409 25.069 15.0851C25.069 20.8697 21.5619 22.1423 18.2203 22.5159C18.7589 22.9809 19.2384 23.8993 19.2384 25.3049C19.2384 27.3188 19.2205 28.9417 19.2205 29.4357C19.2205 29.8393 19.491 30.3081 20.2516 30.1596C26.2066 28.1646 30.5 22.5236 30.5 15.8728C30.5 7.55409 23.7834 0.812317 15.4995 0.812317Z" fill="white"/>
            <path d="M15.4995 0.812317C7.21661 0.812317 0.5 7.55409 0.5 15.8728C0.5 22.5255 4.79726 28.1704 10.76 30.1615C11.5095 30.3004 11.7829 29.8354 11.7829 29.4357C11.7829 29.0786 11.7698 28.1317 11.7626 26.8746C7.58919 27.7857 6.70903 24.8559 6.70903 24.8559C6.02774 23.1159 5.04452 22.6538 5.04452 22.6538C3.68194 21.7189 5.1471 21.7368 5.1471 21.7368C6.65194 21.8428 7.44403 23.2896 7.44403 23.2896C8.78339 25.5909 10.956 24.9255 11.8105 24.5399C11.9455 23.5673 12.334 22.903 12.7623 22.527C9.43226 22.1462 5.93097 20.8552 5.93097 15.0851C5.93097 13.4413 6.515 12.0967 7.47452 11.0428C7.31919 10.662 6.80484 9.13151 7.62064 7.05861C7.62064 7.05861 8.88064 6.65409 11.7456 8.60216C12.9423 8.26828 14.2255 8.10135 15.5015 8.09457C16.7745 8.10135 18.0587 8.2678 19.2573 8.60216C22.1198 6.65409 23.3779 7.05861 23.3779 7.05861C24.1956 9.13151 23.6813 10.662 23.5265 11.0428C24.4884 12.0967 25.069 13.4409 25.069 15.0851C25.069 20.8697 21.5619 22.1423 18.2203 22.5159C18.7589 22.9809 19.2384 23.8993 19.2384 25.3049C19.2384 27.3188 19.2205 28.9417 19.2205 29.4357C19.2205 29.8393 19.491 30.3081 20.2516 30.1596C26.2066 28.1646 30.5 22.5236 30.5 15.8728C30.5 7.55409 23.7834 0.812317 15.4995 0.812317Z" fill="white"/>
            <path d="M23.3929 7.10059C24.1869 9.15123 23.6803 10.6648 23.526 11.0427C24.4879 12.0966 25.0686 13.4407 25.0686 15.0849C25.0686 20.8696 21.5615 22.1422 18.2198 22.5157C18.7584 22.9807 19.2379 23.8991 19.2379 25.3048C19.2379 27.3187 19.22 28.9416 19.22 29.4356C19.22 29.8391 19.4905 30.308 20.2511 30.1595C26.2066 28.1645 30.5 22.5235 30.5 15.8727C30.5 14.0848 30.1884 12.3709 29.6189 10.7799C27.5508 8.60252 25.249 7.15236 23.3929 7.10059Z" fill="white"/>
            <path d="M12.1719 23.3219C12.3403 22.9823 12.546 22.7181 12.7623 22.5269C10.9371 22.3179 9.06258 21.8306 7.73919 20.486C8.75726 22.1805 10.415 22.9513 12.1719 23.3219Z" fill="white"/>
            <path d="M1.28097 16.888C1.28097 8.56925 7.99758 1.82748 16.2805 1.82748C20.8797 1.82748 24.9935 3.90764 27.7444 7.17958C25.0274 3.32796 20.5574 0.812317 15.4995 0.812317C7.21661 0.812317 0.5 7.55409 0.5 15.8728C0.5 19.5817 1.8379 22.9751 4.05355 25.5981C2.31113 23.1386 1.28097 20.1357 1.28097 16.888Z" fill="white"/>
            <path d="M20.0189 26.3205C20.0189 24.9154 19.5394 23.9955 19.0008 23.5305C22.3424 23.158 25.85 21.8844 25.85 16.1002C25.85 14.456 25.2694 13.1123 24.3065 12.0584C24.4623 11.6776 24.9776 10.1467 24.1579 8.07425C24.1579 8.07425 24.0021 8.02634 23.6803 8.04473C24.0316 9.60763 23.6552 10.7254 23.526 11.0428C24.4879 12.0967 25.0685 13.4409 25.0685 15.0851C25.0685 20.8697 21.5615 22.1423 18.2198 22.5159C18.7584 22.9809 19.2379 23.8992 19.2379 25.3049C19.2379 27.3188 19.22 28.9417 19.22 29.4357C19.22 29.7909 19.4315 30.1959 20.0015 30.1862C20.0053 29.5054 20.0189 28.06 20.0189 26.3205Z" fill="white"/>
            <path d="M7.60468 26.1448C7.91968 26.7932 8.97839 28.3464 11.7713 28.0193C11.7674 27.6777 11.7645 27.295 11.7626 26.8745C9.6079 27.3448 8.33581 26.7903 7.60468 26.1448Z" fill="white"/>
            <path d="M8.14323 24.1726C8.04694 24.0274 7.86645 23.7811 7.60468 23.5349C7.77452 23.7869 7.955 23.9984 8.14323 24.1726Z" fill="white"/>
        </g>
        <defs>
            <clipPath id="clip0_1_4795">
                <rect width="30" height="30" fill="white" transform="translate(0.5 0.5)"/>
            </clipPath>
        </defs>
    </g>
</svg>
