<svg width="16" height="15" viewBox="0 0 16 15" fill="none" xmlns="http://www.w3.org/2000/svg">
<path d="M8 1.25012C7.17924 1.25012 6.36651 1.41178 5.60823 1.72588C4.84994 2.03997 4.16095 2.50034 3.58058 3.0807C2.40848 4.25281 1.75 5.84252 1.75 7.50012C1.75 10.2626 3.54375 12.6064 6.025 13.4376C6.3375 13.4876 6.4375 13.2939 6.4375 13.1251V12.0689C4.70625 12.4439 4.3375 11.2314 4.3375 11.2314C4.05 10.5064 3.64375 10.3126 3.64375 10.3126C3.075 9.92512 3.6875 9.93762 3.6875 9.93762C4.3125 9.98137 4.64375 10.5814 4.64375 10.5814C5.1875 11.5314 6.10625 11.2501 6.4625 11.1001C6.51875 10.6939 6.68125 10.4189 6.85625 10.2626C5.46875 10.1064 4.0125 9.56887 4.0125 7.18762C4.0125 6.49387 4.25 5.93762 4.65625 5.49387C4.59375 5.33762 4.375 4.68762 4.71875 3.84387C4.71875 3.84387 5.24375 3.67512 6.4375 4.48137C6.93125 4.34387 7.46875 4.27512 8 4.27512C8.53125 4.27512 9.06875 4.34387 9.5625 4.48137C10.7562 3.67512 11.2812 3.84387 11.2812 3.84387C11.625 4.68762 11.4063 5.33762 11.3438 5.49387C11.75 5.93762 11.9875 6.49387 11.9875 7.18762C11.9875 9.57512 10.525 10.1001 9.13125 10.2564C9.35625 10.4501 9.5625 10.8314 9.5625 11.4126V13.1251C9.5625 13.2939 9.6625 13.4939 9.98125 13.4376C12.4625 12.6001 14.25 10.2626 14.25 7.50012C14.25 6.67936 14.0883 5.86664 13.7742 5.10835C13.4602 4.35007 12.9998 3.66107 12.4194 3.0807C11.8391 2.50034 11.1501 2.03997 10.3918 1.72588C9.63349 1.41178 8.82076 1.25012 8 1.25012Z" fill="white"/>
</svg>
