<svg width="22" height="21" viewBox="0 0 22 21" fill="none" xmlns="http://www.w3.org/2000/svg">
<g clip-path="url(#clip0_99128_34)">
<path fill-rule="evenodd" clip-rule="evenodd" d="M19.3462 0.0556168C18.8968 -0.0444723 18.4282 -0.0132307 17.9962 0.145617L1.92365 5.50962L1.91915 5.51112C1.51088 5.65034 1.14703 5.89573 0.864961 6.22208C0.582894 6.54843 0.392783 6.94399 0.314153 7.36812C0.23601 7.75626 0.255106 8.1577 0.369739 8.53667C0.484372 8.91564 0.690981 9.26036 0.971153 9.54012L4.85315 13.4161L4.72565 18.2956C4.72223 18.426 4.75287 18.5551 4.81456 18.67C4.87625 18.7849 4.96686 18.8818 5.07742 18.951C5.18799 19.0202 5.3147 19.0594 5.44504 19.0647C5.57538 19.07 5.70485 19.0412 5.82065 18.9811L8.84165 17.4181L11.7172 20.2816C12.0083 20.5783 12.3715 20.7942 12.7711 20.9083C13.1708 21.0225 13.5933 21.0308 13.9972 20.9326C14.4018 20.8377 14.7754 20.6406 15.0821 20.3601C15.3888 20.0797 15.6185 19.7252 15.7492 19.3306V19.3291L21.1117 3.26112C21.2302 2.93542 21.2778 2.58812 21.2511 2.24253C21.2243 1.89695 21.124 1.56108 20.9568 1.25747C20.7896 0.953857 20.5593 0.689534 20.2815 0.482242C20.0037 0.27495 19.6848 0.129486 19.3462 0.0556168Z" fill="#8FBFFA"/>
<path d="M4.85165 13.4161L4.72415 18.2956C4.72073 18.426 4.75137 18.5551 4.81306 18.67C4.87475 18.7849 4.96536 18.8818 5.07593 18.951C5.18649 19.0202 5.3132 19.0594 5.44354 19.0647C5.57389 19.07 5.70335 19.0412 5.81915 18.9811L8.84015 17.4181L4.85165 13.4161Z" fill="#2859C5"/>
<path fill-rule="evenodd" clip-rule="evenodd" d="M4.84865 13.5196L15.4162 5.84412C15.5158 5.77173 15.6003 5.68042 15.6646 5.5754C15.729 5.47037 15.7721 5.35369 15.7914 5.23203C15.8107 5.11036 15.8058 4.98608 15.7771 4.86629C15.7483 4.7465 15.6963 4.63355 15.6239 4.53387C15.5515 4.4342 15.4602 4.34976 15.3552 4.28538C15.2501 4.221 15.1335 4.17793 15.0118 4.15864C14.8901 4.13935 14.7659 4.14421 14.6461 4.17295C14.5263 4.20168 14.4133 4.25373 14.3137 4.32612L3.56765 12.1321L4.85165 13.4161L4.84865 13.5196Z" fill="#2859C5"/>
</g>
<defs>
<clipPath id="clip0_99128_34">
<rect width="21" height="21" fill="white" transform="translate(0.263153 0.00012207)"/>
</clipPath>
</defs>
</svg>
