<svg width="22" height="23" viewBox="0 0 22 23" fill="none" xmlns="http://www.w3.org/2000/svg">
<path d="M4.58282 0.171875V0.176563C3.41094 0.326563 2.37501 1.67656 2.37501 3.40156C2.37501 4.35781 2.70782 5.20156 3.19532 5.7875L3.67344 6.35938L2.93751 6.49531C2.29532 6.61719 1.82188 6.95937 1.42813 7.50312C1.02969 8.04219 0.729694 8.79219 0.518756 9.65C0.134381 11.225 0.0546936 13.1516 0.0453186 14.8297H2.10782L2.66563 22.2547H7.17969L7.67188 14.8297H9.63594C9.63594 13.1328 9.62188 11.1828 9.27032 9.59375C9.08282 8.72656 8.79219 7.98125 8.39376 7.44219C7.99063 6.90781 7.49376 6.56563 6.77657 6.45781L6.02657 6.34063L6.50001 5.75C6.96876 5.16406 7.28282 4.33438 7.28282 3.40156C7.28282 1.56406 6.12032 0.176563 4.82657 0.176563C4.69063 0.176563 4.60626 0.171875 4.58282 0.171875ZM19.625 0.546875C18.8188 0.546875 18.1719 1.19234 18.1719 2C18.1719 2.80766 18.8188 3.45312 19.625 3.45312C20.4313 3.45312 21.0781 2.80766 21.0781 2C21.0781 1.19234 20.4313 0.546875 19.625 0.546875ZM13.5781 1.57812V3.82812H8.75001V4.67188H13.5781V12.0781H11V12.9219H13.5781V18.0781H8.75001V18.9219H13.5781V20.4219H17.3656C17.3422 20.2859 17.3281 20.1453 17.3281 20C17.3281 19.8547 17.3422 19.7141 17.3656 19.5781H14.4219V12.9219H17.3656C17.3422 12.7859 17.3281 12.6453 17.3281 12.5C17.3281 12.3547 17.3422 12.2141 17.3656 12.0781H14.4219V2.42188H17.3656C17.3422 2.285 17.3281 2.14391 17.3281 2C17.3281 1.85609 17.3422 1.715 17.3656 1.57812H13.5781ZM19.625 11.0469C18.8188 11.0469 18.1719 11.6937 18.1719 12.5C18.1719 13.3063 18.8188 13.9531 19.625 13.9531C20.4313 13.9531 21.0781 13.3063 21.0781 12.5C21.0781 11.6937 20.4313 11.0469 19.625 11.0469ZM19.625 18.5469C18.8188 18.5469 18.1719 19.1937 18.1719 20C18.1719 20.8063 18.8188 21.4531 19.625 21.4531C20.4313 21.4531 21.0781 20.8063 21.0781 20C21.0781 19.1937 20.4313 18.5469 19.625 18.5469Z" fill="#E84949"/>
</svg>
