<svg width="25" height="23" viewBox="0 0 25 23" fill="none" xmlns="http://www.w3.org/2000/svg">

    <!--    gears icon-->
    <g id="gears">
        <g id="gears-svgrepo-com 1" clip-path="url(#clip0_1_4844)">
            <g id="Group">
                <g id="bigg">
                    <g id="Group 15">
                        <path id="big-gear"
                              d="M14.566 11.7999L13.6247 10.9443C13.7274 10.7522 13.8173 10.5548 13.8942 10.3529H15.2253C15.6627 10.3529 16.0175 10.0305 16.0175 9.63275V7.52167C16.0175 7.12402 15.6628 6.80153 15.2253 6.80153H13.8941C13.8173 6.59965 13.7273 6.40233 13.6247 6.21023L14.566 5.35447C14.8754 5.07326 14.8754 4.61728 14.566 4.33607L12.924 2.84333C12.6146 2.56219 12.1132 2.56219 11.8038 2.84333L10.8624 3.69908C10.6511 3.60579 10.4341 3.52395 10.212 3.45416V2.24395C10.212 1.8463 9.85733 1.5238 9.41984 1.5238H7.09766C6.66024 1.5238 6.3055 1.84623 6.3055 2.24395V3.45416C6.08343 3.52402 5.86638 3.60571 5.65507 3.69908L4.71382 2.84333C4.56529 2.7083 4.36376 2.63242 4.15366 2.63242C3.94356 2.63242 3.7421 2.7083 3.5935 2.84333L1.95139 4.33607C1.80287 4.47109 1.71939 4.65431 1.71939 4.84531C1.71939 5.03631 1.80287 5.21945 1.95139 5.35455L2.89273 6.21031C2.7901 6.40233 2.70008 6.59965 2.62331 6.8016H1.29216C0.854667 6.8016 0.5 7.12402 0.5 7.52167V9.63282C0.5 10.0305 0.854667 10.353 1.29216 10.353H2.62331C2.70024 10.5548 2.7901 10.7522 2.89281 10.9443L1.95147 11.8C1.64214 12.0812 1.64214 12.5372 1.95147 12.8184L3.5935 14.3112C3.90291 14.5922 4.40432 14.5924 4.71374 14.3112L5.65507 13.4554C5.8663 13.5488 6.08343 13.6306 6.3055 13.7004V14.9106C6.3055 15.3083 6.66016 15.6308 7.09766 15.6308H9.41992C9.85733 15.6308 10.2121 15.3083 10.2121 14.9106V13.7004C10.4341 13.6305 10.6512 13.5488 10.8625 13.4554L11.8038 14.3112C12.1133 14.5923 12.6147 14.5923 12.9241 14.3112L14.5661 12.8184C14.8754 12.5371 14.8754 12.0812 14.566 11.7999ZM12.5265 9.47172C12.4174 9.9036 12.2309 10.3129 11.9722 10.6881C11.776 10.9725 11.8222 11.3424 12.0833 11.5797L12.8857 12.3092L12.3639 12.7836L11.5614 12.0541C11.3002 11.8167 10.8935 11.775 10.5806 11.953C10.1677 12.1883 9.71762 12.3579 9.24279 12.4569C8.88287 12.532 8.62784 12.8232 8.62784 13.1588V14.1905H7.8899V13.1588C7.8899 12.8232 7.63487 12.5321 7.27495 12.4569C6.80012 12.3579 6.35002 12.1883 5.93709 11.953C5.62453 11.775 5.21749 11.8166 4.95632 12.0541L4.15382 12.7836L3.63204 12.3092L4.43446 11.5797C4.69556 11.3424 4.74162 10.9725 4.54558 10.6881C4.28683 10.3129 4.10032 9.9036 3.99123 9.47172C3.90865 9.14459 3.5884 8.91275 3.21919 8.91275H2.08424V8.24189H3.21895C3.58808 8.24189 3.90832 8.01005 3.99099 7.683C4.10016 7.25104 4.28659 6.84186 4.54533 6.46669C4.74154 6.18232 4.69539 5.81236 4.4343 5.57501L3.6318 4.84546L4.15366 4.37111L4.95608 5.10066C5.21717 5.33809 5.6242 5.37974 5.93693 5.2016C6.3497 4.96637 6.7998 4.7969 7.27471 4.6978C7.63463 4.62272 7.88966 4.33152 7.88966 3.99587V2.9641H8.6276V3.99572C8.6276 4.33137 8.88263 4.6225 9.24255 4.69765C9.71754 4.79675 10.1676 4.96623 10.5803 5.20145C10.8931 5.37975 11.3002 5.33802 11.5612 5.10052L12.3637 4.37097L12.8855 4.84531L12.0829 5.57486C11.8219 5.81229 11.7758 6.18217 11.9719 6.46654C12.2307 6.84171 12.4171 7.25097 12.5263 7.68285C12.6088 8.0099 12.9292 8.24175 13.2983 8.24175H14.433V8.9126H13.2983C12.9293 8.91267 12.6091 9.14452 12.5265 9.47172Z"
                              fill="currentColor"/>
                    </g>
                    <path id="Vector"
                          d="M8.25871 5.81006C6.58025 5.81006 5.21475 7.05142 5.21475 8.57729C5.21475 10.1032 6.58025 11.3445 8.25871 11.3445C9.93718 11.3445 11.3027 10.1032 11.3027 8.57729C11.3027 7.05142 9.93726 5.81006 8.25871 5.81006ZM8.25871 9.90431C7.45378 9.90431 6.79899 9.30905 6.79899 8.57729C6.79899 7.84554 7.45386 7.25028 8.25871 7.25028C9.06356 7.25028 9.71843 7.84554 9.71843 8.57729C9.71843 9.30905 9.06364 9.90431 8.25871 9.90431Z"
                          fill="currentColor"/>
                </g>
                <g id="small">
                    <g id="Group 14">
                        <path id="small-gear"
                              d="M23.9811 16.8324C24.3253 16.7746 24.5528 16.4742 24.4893 16.1614L24.1904 14.6882C24.16 14.5379 24.065 14.4049 23.9267 14.3183C23.7882 14.2317 23.6175 14.1985 23.4523 14.2262L22.5731 14.3736C22.505 14.2672 22.4312 14.1639 22.3523 14.0638L22.8592 13.3945C22.9545 13.2686 22.9909 13.1135 22.9604 12.9633C22.93 12.813 22.835 12.6799 22.6966 12.5933L21.3394 11.7438C21.0514 11.5635 20.6566 11.6294 20.4581 11.8915L19.9512 12.5609C19.8202 12.5295 19.6877 12.5038 19.5541 12.4839L19.3919 11.6847C19.3284 11.3719 18.9975 11.1648 18.6538 11.2227L17.0333 11.4945C16.868 11.5222 16.7217 11.6085 16.6264 11.7343C16.5311 11.8602 16.4947 12.0152 16.5251 12.1655L16.6873 12.9647C16.5702 13.0267 16.4565 13.0937 16.3465 13.1655L15.6102 12.7047C15.4717 12.6181 15.3011 12.5851 15.1359 12.6126C14.9706 12.6403 14.8242 12.7266 14.7289 12.8525L13.7945 14.0864C13.6991 14.2122 13.6628 14.3673 13.6932 14.5175C13.7237 14.6678 13.8186 14.8009 13.9571 14.8875L14.6933 15.3483C14.6587 15.4674 14.6305 15.5878 14.6086 15.7094L13.7294 15.8568C13.5641 15.8845 13.4177 15.9708 13.3225 16.0966C13.2271 16.2225 13.1908 16.3776 13.2212 16.5278L13.5202 18.0009C13.5837 18.3138 13.9141 18.521 14.2583 18.4629L15.1375 18.3155C15.2056 18.4219 15.2794 18.5253 15.3583 18.6253L14.8514 19.2946C14.7562 19.4205 14.7197 19.5755 14.7502 19.7258C14.7807 19.8761 14.8756 20.0091 15.014 20.0958L16.3713 20.9453C16.6593 21.1256 17.0541 21.0596 17.2525 20.7975L17.7594 20.1282C17.8904 20.1596 18.0228 20.1852 18.1566 20.2052L18.3188 21.0044C18.3751 21.2819 18.6415 21.4761 18.9412 21.4761C18.9794 21.4761 19.0181 21.473 19.0569 21.4665L20.6773 21.1947C20.8426 21.1671 20.989 21.0807 21.0842 20.955C21.1795 20.8291 21.216 20.674 21.1855 20.5237L21.0233 19.7245C21.1404 19.6625 21.2541 19.5955 21.3642 19.5237L22.1003 19.9845C22.2388 20.0712 22.4093 20.1044 22.5747 20.0766C22.74 20.0489 22.8863 19.9626 22.9816 19.8367L23.9161 18.6029C24.1145 18.3408 24.0418 17.9822 23.7536 17.8018L23.0173 17.3409C23.0519 17.2218 23.0801 17.1014 23.102 16.9799L23.9811 16.8324ZM22.4066 15.9249C22.116 15.9736 21.9011 16.1984 21.8884 16.4667C21.8739 16.7734 21.8034 17.0735 21.679 17.359C21.5701 17.6086 21.6654 17.8935 21.9087 18.0458L22.5129 18.4241L22.2972 18.7089L21.6931 18.3308C21.4496 18.1784 21.1229 18.1992 20.9053 18.3807C20.6564 18.5882 20.373 18.7552 20.063 18.877C19.7918 18.9835 19.6375 19.2463 19.6911 19.5103L19.8242 20.1664L19.4501 20.2291L19.3171 19.5732C19.2635 19.3091 19.0163 19.1136 18.7212 19.1021C18.3836 19.0888 18.0533 19.0248 17.7394 18.9117C17.6632 18.8843 17.5843 18.8711 17.5061 18.8711C17.3024 18.8711 17.105 18.9608 16.984 19.1206L16.568 19.6698L16.2546 19.4737L16.6706 18.9245C16.8381 18.7033 16.8153 18.4063 16.6156 18.2084C16.3874 17.982 16.2037 17.7244 16.0696 17.4425C15.9524 17.196 15.6627 17.0557 15.373 17.1045L14.6514 17.2255L14.5823 16.8855L15.304 16.7645C15.5946 16.7158 15.8095 16.491 15.8221 16.2227C15.8367 15.916 15.9071 15.6158 16.0316 15.3302C16.1404 15.0806 16.0451 14.7958 15.8017 14.6434L15.1975 14.2653L15.4133 13.9804L16.0175 14.3586C16.261 14.511 16.5875 14.4902 16.8052 14.3087C17.0542 14.1011 17.3376 13.9341 17.6477 13.8123C17.9188 13.7057 18.073 13.443 18.0194 13.179L17.8863 12.523L18.2604 12.4603L18.3935 13.1162C18.4471 13.3804 18.6943 13.5758 18.9895 13.5873C19.3268 13.6005 19.657 13.6645 19.971 13.7777C20.2459 13.8767 20.5591 13.7899 20.7265 13.5688L21.1426 13.0195L21.456 13.2156L21.04 13.7649C20.8724 13.9862 20.8952 14.2832 21.0949 14.4811C21.3232 14.7073 21.5069 14.9649 21.6409 15.2468C21.7579 15.4932 22.0473 15.6336 22.3375 15.5848L23.0591 15.4638L23.1281 15.8039L22.4066 15.9249Z"
                              fill="currentColor"/>
                    </g>
                    <path id="Vector_2"
                          d="M20.1208 14.6737C19.6299 14.3664 19.0365 14.2514 18.4504 14.3496C17.8642 14.4479 17.3552 14.7479 17.0172 15.1942C16.3193 16.1156 16.5762 17.3813 17.5897 18.0157C17.9753 18.2571 18.4158 18.3728 18.8519 18.3728C19.5621 18.3728 20.261 18.0659 20.6934 17.4951C21.3911 16.5738 21.1343 15.308 20.1208 14.6737ZM19.6495 16.8417C19.348 17.2398 18.7464 17.3407 18.3086 17.0667C17.8707 16.7926 17.7596 16.2457 18.0611 15.8477C18.0612 15.8476 18.0612 15.8476 18.0612 15.8476C18.2071 15.6547 18.4271 15.5252 18.6804 15.4827C18.7393 15.4729 18.7986 15.4679 18.8573 15.4679C19.0507 15.4679 19.2394 15.5209 19.4021 15.6227C19.84 15.8968 19.951 16.4437 19.6495 16.8417Z"
                          fill="currentColor"/>
                </g>
            </g>
        </g>
        <defs>
            <clipPath id="clip0_1_4844">
                <rect width="24" height="21.8182" fill="white" transform="translate(0.5 0.590942)"/>
            </clipPath>
        </defs>
    </g>

    <g id="gearsWhite">
        <svg width="28" height="22" viewBox="0 0 28 22" fill="none" xmlns="http://www.w3.org/2000/svg">
            <path d="M16.2726 11.3301L15.2371 10.3888C15.3501 10.1775 15.4491 9.96045 15.5336 9.73831H16.9979C17.479 9.73831 17.8692 9.38364 17.8692 8.94615V6.62396C17.8692 6.18655 17.4791 5.8318 16.9979 5.8318H15.5335C15.449 5.60974 15.35 5.39269 15.2371 5.18138L16.2726 4.24004C16.6129 3.93071 16.6129 3.42913 16.2726 3.1198L14.4664 1.47778C14.126 1.16853 13.5745 1.16853 13.2341 1.47778L12.1987 2.41911C11.9662 2.31649 11.7275 2.22647 11.4832 2.1497V0.818468C11.4832 0.381054 11.0931 0.0263062 10.6118 0.0263062H8.05741C7.57626 0.0263062 7.18603 0.380973 7.18603 0.818468V2.1497C6.94177 2.22655 6.70301 2.31641 6.47057 2.41911L5.43519 1.47778C5.27181 1.32926 5.05012 1.24578 4.81901 1.24578C4.5879 1.24578 4.3663 1.32926 4.20283 1.47778L2.39652 3.1198C2.23314 3.26833 2.14132 3.46986 2.14132 3.67996C2.14132 3.89006 2.23314 4.09152 2.39652 4.24012L3.43199 5.18146C3.3191 5.39269 3.22008 5.60974 3.13563 5.83188H1.67137C1.19012 5.83188 0.799988 6.18655 0.799988 6.62396V8.94623C0.799988 9.38364 1.19012 9.73839 1.67137 9.73839H3.13563C3.22025 9.96045 3.3191 10.1775 3.43208 10.3889L2.39661 11.3301C2.05634 11.6395 2.05634 12.1411 2.39661 12.4504L4.20283 14.0924C4.54319 14.4016 5.09474 14.4017 5.4351 14.0924L6.47057 13.1511C6.70292 13.2538 6.94177 13.3438 7.18603 13.4206V14.7518C7.18603 15.1892 7.57617 15.544 8.05741 15.544H10.6119C11.0931 15.544 11.4833 15.1893 11.4833 14.7518V13.4206C11.7275 13.3437 11.9663 13.2538 12.1987 13.1511L13.2342 14.0924C13.5746 14.4017 14.1261 14.4017 14.4665 14.0924L16.2727 12.4504C16.613 12.141 16.613 11.6394 16.2726 11.3301ZM14.0291 8.76901C13.9091 9.24408 13.704 9.69427 13.4194 10.107C13.2036 10.4198 13.2544 10.8268 13.5416 11.0878L14.4243 11.8902L13.8503 12.4121L12.9675 11.6096C12.6803 11.3485 12.2328 11.3026 11.8887 11.4985C11.4345 11.7573 10.9394 11.9438 10.4171 12.0527C10.0211 12.1353 9.74061 12.4556 9.74061 12.8249V13.9596H8.92888V12.8249C8.92888 12.4556 8.64834 12.1354 8.25243 12.0527C7.73012 11.9438 7.23501 11.7573 6.78079 11.4985C6.43697 11.3027 5.98923 11.3484 5.70194 11.6096L4.81919 12.4121L4.24523 11.8902L5.1279 11.0878C5.4151 10.8267 5.46577 10.4198 5.25012 10.107C4.9655 9.69427 4.76034 9.24408 4.64034 8.76901C4.5495 8.40917 4.19723 8.15414 3.7911 8.15414H2.54265V7.41621H3.79083C4.19688 7.41621 4.54914 7.16118 4.64008 6.80142C4.76017 6.32627 4.96523 5.87616 5.24986 5.46348C5.46568 5.15067 5.41492 4.74372 5.12772 4.48263L4.24497 3.68012L4.81901 3.15835L5.70168 3.96085C5.98888 4.22202 6.43661 4.26784 6.78061 4.07188C7.23465 3.81313 7.72977 3.62671 8.25217 3.5177C8.64808 3.43511 8.92861 3.11479 8.92861 2.74558V1.61063H9.74035V2.74542C9.74035 3.11463 10.0209 3.43487 10.4168 3.51754C10.9393 3.62655 11.4343 3.81297 11.8883 4.07172C12.2324 4.26784 12.6802 4.22194 12.9673 3.96069L13.85 3.15819L14.424 3.67996L13.5412 4.48247C13.254 4.74364 13.2034 5.15051 13.4191 5.46332C13.7037 5.876 13.9088 6.32619 14.0289 6.80126C14.1197 7.16101 14.4721 7.41604 14.8781 7.41604H16.1263V8.15398H14.8781C14.4722 8.15406 14.12 8.40909 14.0291 8.76901Z"
                  fill="white" fill-opacity="0.87"/>
            <path d="M9.33456 4.74115C7.48825 4.74115 5.98621 6.10664 5.98621 7.78511C5.98621 9.46357 7.48825 10.8291 9.33456 10.8291C11.1809 10.8291 12.6829 9.46357 12.6829 7.78511C12.6829 6.10664 11.181 4.74115 9.33456 4.74115ZM9.33456 9.24483C8.44914 9.24483 7.72887 8.59004 7.72887 7.78511C7.72887 6.98018 8.44923 6.32539 9.33456 6.32539C10.2199 6.32539 10.9403 6.98018 10.9403 7.78511C10.9403 8.59004 10.22 9.24483 9.33456 9.24483Z"
                  fill="white" fill-opacity="0.87"/>
            <path d="M26.6292 16.8657C27.0078 16.8022 27.2581 16.4718 27.1883 16.1276L26.8595 14.5072C26.8259 14.3419 26.7215 14.1955 26.5693 14.1002C26.4171 14.005 26.2292 13.9685 26.0475 13.999L25.0804 14.1611C25.0055 14.0441 24.9243 13.9304 24.8375 13.8203L25.3951 13.0841C25.4999 12.9456 25.54 12.775 25.5065 12.6097C25.473 12.4444 25.3685 12.2981 25.2163 12.2028L23.7233 11.2683C23.4065 11.0699 22.9723 11.1425 22.7539 11.4308L22.1963 12.1671C22.0522 12.1326 21.9065 12.1044 21.7595 12.0825L21.5811 11.2033C21.5112 10.8592 21.1473 10.6314 20.7691 10.6951L18.9867 10.9941C18.8048 11.0245 18.6438 11.1195 18.539 11.2578C18.4342 11.3963 18.3941 11.5669 18.4276 11.7322L18.606 12.6113C18.4772 12.6796 18.3522 12.7532 18.2311 12.8322L17.4212 12.3253C17.2689 12.23 17.0812 12.1937 16.8995 12.224C16.7176 12.2545 16.5566 12.3494 16.4518 12.4879L15.4239 13.8451C15.319 13.9836 15.279 14.1541 15.3125 14.3194C15.346 14.4847 15.4505 14.6311 15.6028 14.7264L16.4126 15.2332C16.3746 15.3643 16.3436 15.4967 16.3195 15.6304L15.3524 15.7926C15.1705 15.8231 15.0095 15.918 14.9047 16.0564C14.7998 16.1949 14.7598 16.3654 14.7933 16.5307L15.1222 18.1511C15.1921 18.4953 15.5555 18.7232 15.9341 18.6593L16.9012 18.4972C16.9762 18.6142 17.0573 18.728 17.1442 18.838L16.5866 19.5742C16.4818 19.7127 16.4417 19.8832 16.4752 20.0485C16.5087 20.2139 16.6132 20.3602 16.7654 20.4555L18.2584 21.3899C18.5752 21.5883 19.0095 21.5157 19.2277 21.2274L19.7853 20.4912C19.9294 20.5257 20.0751 20.5539 20.2222 20.5759L20.4006 21.455C20.4626 21.7603 20.7556 21.9739 21.0853 21.9739C21.1273 21.9739 21.1699 21.9705 21.2125 21.9633L22.995 21.6644C23.1769 21.6339 23.3379 21.5389 23.4427 21.4006C23.5475 21.2621 23.5875 21.0915 23.554 20.9263L23.3756 20.0471C23.5044 19.9789 23.6295 19.9052 23.7506 19.8262L24.5603 20.3331C24.7127 20.4285 24.9002 20.4649 25.0821 20.4344C25.264 20.4039 25.425 20.309 25.5298 20.1705L26.5577 18.8133C26.776 18.525 26.696 18.1305 26.3789 17.9321L25.5691 17.4251C25.6071 17.2941 25.6381 17.1617 25.6622 17.028L26.6292 16.8657ZM24.8972 15.8675C24.5776 15.9211 24.3411 16.1684 24.3273 16.4635C24.3113 16.8008 24.2338 17.131 24.0969 17.445C23.9771 17.7196 24.0819 18.033 24.3496 18.2005L25.0142 18.6166L24.7769 18.93L24.1123 18.514C23.8445 18.3464 23.4851 18.3692 23.2459 18.5689C22.972 18.7972 22.6603 18.9809 22.3193 19.1149C22.021 19.232 21.8513 19.5211 21.9102 19.8115L22.0566 20.5331L21.6451 20.6021L21.4987 19.8806C21.4398 19.5901 21.1679 19.3751 20.8433 19.3625C20.4719 19.3478 20.1086 19.2774 19.7633 19.153C19.6796 19.1229 19.5927 19.1084 19.5068 19.1084C19.2827 19.1084 19.0655 19.207 18.9324 19.3827L18.4748 19.9869L18.13 19.7712L18.5876 19.1671C18.7719 18.9238 18.7468 18.597 18.5272 18.3793C18.2761 18.1304 18.074 17.847 17.9266 17.5368C17.7976 17.2657 17.4789 17.1114 17.1603 17.1651L16.3666 17.2982L16.2906 16.9242L17.0844 16.7911C17.404 16.7375 17.6404 16.4902 17.6543 16.1951C17.6703 15.8577 17.7478 15.5276 17.8847 15.2134C18.0044 14.9388 17.8996 14.6255 17.6319 14.4579L16.9673 14.042L17.2046 13.7286L17.8692 14.1446C18.1371 14.3123 18.4963 14.2893 18.7357 14.0897C19.0096 13.8614 19.3213 13.6777 19.6625 13.5436C19.9606 13.4264 20.1303 13.1374 20.0714 12.847L19.925 12.1254L20.3364 12.0564L20.4828 12.778C20.5418 13.0686 20.8138 13.2835 21.1384 13.2961C21.5095 13.3107 21.8727 13.3811 22.2181 13.5056C22.5204 13.6145 22.865 13.5191 23.0491 13.2758L23.5068 12.6716L23.8515 12.8873L23.3939 13.4915C23.2097 13.7349 23.2347 14.0616 23.4544 14.2793C23.7055 14.5282 23.9075 14.8115 24.0549 15.1216C24.1837 15.3927 24.502 15.5471 24.8212 15.4934L25.615 15.3604L25.6909 15.7344L24.8972 15.8675Z"
                  fill="white" fill-opacity="0.87"/>
            <path d="M22.3828 14.4911C21.8428 14.1532 21.1901 14.0266 20.5454 14.1347C19.9006 14.2428 19.3407 14.5728 18.9689 15.0637C18.2012 16.0772 18.4838 17.4695 19.5986 18.1673C20.0228 18.4328 20.5074 18.5601 20.9871 18.5601C21.7683 18.5601 22.5371 18.2226 23.0127 17.5947C23.7802 16.5812 23.4977 15.1889 22.3828 14.4911ZM21.8644 16.876C21.5328 17.3138 20.871 17.4248 20.3894 17.1234C19.9077 16.8219 19.7856 16.2203 20.1172 15.7825C20.2778 15.5704 20.5198 15.4277 20.7984 15.381C20.8633 15.3702 20.9284 15.3648 20.993 15.3648C21.2058 15.3648 21.4133 15.4231 21.5922 15.5351C22.0739 15.8366 22.1961 16.4381 21.8644 16.876Z"
                  fill="white" fill-opacity="0.87"/>
        </svg>
    </g>

    <g id="whiteArrow">
        <svg width="20" height="20" viewBox="0 0 20 20" fill="none" xmlns="http://www.w3.org/2000/svg">
            <path d="M2 12.3668C2 12.5326 2.06585 12.6915 2.18306 12.8088C2.30027 12.926 2.45924 12.9918 2.625 12.9918H14.8663L12.1838 15.6743C12.0699 15.7922 12.0069 15.9501 12.0083 16.1139C12.0098 16.2778 12.0755 16.4346 12.1914 16.5505C12.3072 16.6663 12.464 16.7321 12.6279 16.7335C12.7917 16.7349 12.9496 16.6719 13.0675 16.5581L16.8175 12.8081C16.8753 12.7506 16.9212 12.6822 16.9525 12.6069C16.9839 12.5316 17 12.4509 17 12.3693V12.3668C17 12.2856 16.9838 12.2043 16.9513 12.1281C16.9201 12.0523 16.8742 11.9835 16.8162 11.9256L13.0663 8.17557C12.9484 8.06172 12.7905 7.99872 12.6266 8.00015C12.4628 8.00157 12.306 8.0673 12.1901 8.18318C12.0742 8.29906 12.0085 8.45582 12.0071 8.61969C12.0057 8.78356 12.0687 8.94144 12.1825 9.05932L14.8663 11.7418H2.625C2.45924 11.7418 2.30027 11.8077 2.18306 11.9249C2.06585 12.0421 2 12.2011 2 12.3668Z"
                  fill="white"/>
        </svg>
    </g>

    <g id="waves">
<!--     width="42" height="102" viewBox="0 0 42 102" -->
        <path d="M39.8303 1.7771L27.5354 17.4648L39.8303 35.0448" stroke="#4F47C8" stroke-width="3"/>
        <path d="M39.8302 33.4792L27.5354 49.167L39.8302 66.747" stroke="#4F47C8" stroke-width="3"/>
        <path d="M39.8302 67.1383L27.5354 82.826L39.8302 100.406" stroke="#4F47C8" stroke-width="3"/>
        <path d="M27.5354 1.7771L15.2406 17.4648L27.5354 35.0448" stroke="#4F47C8" stroke-width="3"/>
        <path d="M27.5355 33.4792L15.2407 49.167L27.5355 66.747" stroke="#4F47C8" stroke-width="3"/>
        <path d="M27.5355 67.1383L15.2407 82.826L27.5355 100.406" stroke="#4F47C8" stroke-width="3"/>
        <path d="M14.2948 1.7771L1.99992 17.4648L14.2948 35.0448" stroke="#4F47C8" stroke-width="3"/>
        <path d="M14.2947 33.4792L1.99981 49.167L14.2947 66.747" stroke="#4F47C8" stroke-width="3"/>
        <path d="M14.2947 67.1383L1.99981 82.826L14.2947 100.406" stroke="#4F47C8" stroke-width="3"/>

    </g>

    <g id="redCircles">
<!--     width="120" height="15" viewBox="0 0 120 15"-->
        <g clip-path="url(#clip0_1_4604)">
            <circle cx="7.49969" cy="7.50012" r="7.5" fill="#E84949"/>
            <circle cx="55.4997" cy="7.50012" r="7.5" fill="#E84949"/>
            <circle cx="103.5" cy="7.50012" r="7.5" fill="#E84949"/>
        </g>
        <defs>
            <clipPath id="clip0_1_4604">
                <rect width="207" height="15" fill="white" transform="translate(-0.000305176 0.00012207)"/>
            </clipPath>
        </defs>
    </g>

    <g>
<!--        <width="23" height="23" viewBox="0 0 23 23"-->
            <circle cx="11.3725" cy="11.4744" r="9.30865" stroke="#4F47C8" stroke-width="3" />

    </g>

    <!--    html 5 icon-->
    <g id="html5">
        <g clip-path="url(#clip0_1_4700)">
            <path d="M37.2872 8.56567L34.4741 40.0798L21.829 43.5854L9.21871 40.0847L6.40851 8.56567H37.2872Z"
                  fill="#E44D26"/>
            <path d="M21.8478 40.9058L32.0657 38.0731L34.4696 11.1428H21.8478V40.9058Z" fill="#F16529"/>
            <path d="M16.3792 18.8742H21.8478V15.0085H12.1545L12.247 16.0456L13.1972 26.6984H21.8478V22.8327H16.7325L16.3792 18.8742ZM17.2505 28.6313H13.3699L13.9114 34.701L21.83 36.8991L21.8478 36.8943V32.8723L21.8309 32.8768L17.5257 31.7143L17.2505 28.6313Z"
                  fill="#EBEBEB"/>
            <path d="M9.28137 0.00012207H11.2459V1.94101H13.043V0.00012207H15.0076V5.87761H13.0431V3.90949H11.246V5.87761H9.28149V0.00012207H9.28137ZM17.5908 1.94924H15.8616V0.00012207H21.2859V1.94924H19.5557V5.87761H17.5912V1.94924H17.5911H17.5908ZM22.1468 0.00012207H24.1951L25.4552 2.06532L26.714 0.00012207H28.7632V5.87761H26.8067V2.9644L25.4552 5.05417H25.4213L24.0689 2.9644V5.87761H22.1468V0.00012207ZM29.7409 0.00012207H31.706V3.93491H34.4686V5.87761H29.7407V0.00012207H29.7409Z"
                  fill="black"/>
            <path d="M21.8345 26.6984H26.5946L26.1458 31.7119L21.8344 32.8756V36.8973L29.7592 34.701L29.8173 34.0479L30.7259 23.8708L30.8202 22.8327H21.8345V26.6984ZM21.8345 18.8648V18.8742H31.1719L31.2494 18.0054L31.4256 16.0456L31.518 15.0085H21.8345V18.8649V18.8648Z"
                  fill="white"/>
        </g>
        <defs>
            <clipPath id="clip0_1_4700">
                <rect width="43.6957" height="43.6957" fill="white"/>
            </clipPath>
        </defs>
    </g>

    <!--    css 3 icon-->
    <g id="css3">
        <path d="M39.3687 45.5357L26.1737 49.0886L12.9785 45.5357L9.93365 12.5482H42.414L39.3687 45.5357Z"
              fill="#2062AF"/>
        <path d="M26.1736 15.2202V46.2549L26.2034 46.263L36.8816 43.3876L39.3463 15.2202H26.1736Z" fill="#3C9CD7"/>
        <path d="M18.685 7.70169V5.73828H21.5496V3.58984H16.5366V9.66219H21.5496V7.70169H18.685ZM26.7027 5.73828H28.7055V3.58984H23.6919V5.73828C24.3627 6.40902 24.7125 6.73006 25.6826 7.70014C25.1155 7.70014 23.6919 7.70217 23.6919 7.70208V9.66219H28.7055V7.70169L26.7027 5.73828ZM33.8085 5.73828H35.8112V3.58984H30.7974V5.73828C31.4682 6.40902 31.8182 6.73006 32.7883 7.70014C32.2214 7.70014 30.7974 7.70217 30.7974 7.70208V9.66219H35.8113V7.70169L33.8085 5.73828Z"
              fill="black"/>
        <path d="M26.1619 23.4683L16.7178 27.4016L17.031 31.2957L26.1619 27.3917L35.8748 23.239L36.2775 19.2554L26.1619 23.4683Z"
              fill="white"/>
        <path d="M16.7177 27.4016L17.0309 31.2958L26.1618 27.3917V23.4684L16.7177 27.4016Z"
              fill="url(#paint0_linear_1_4709)"/>
        <path d="M36.2775 19.2555L26.1619 23.4684V27.3917L35.8748 23.239L36.2775 19.2555Z"
              fill="url(#paint1_linear_1_4709)"/>
        <path d="M16.7322 27.4016L17.0455 31.2958L31.0557 31.3404L30.7423 36.5326L26.1322 37.8305L21.7004 36.7115L21.4319 33.4888H17.3141L17.8512 39.7104L26.1769 42.1721L34.4575 39.7551L35.5318 27.4016H16.7322Z"
              fill="url(#paint2_linear_1_4709)"/>
        <path opacity="0.05"
              d="M26.1619 27.4016H16.7178L17.031 31.2958L26.1619 31.3249V27.4016ZM26.1619 37.8181L26.1172 37.8306L21.686 36.7116L21.4175 33.4889H17.2997L17.8368 39.7105L26.1619 42.1722V37.8181Z"
              fill="black"/>
        <path d="M15.8673 19.2555H36.2776L35.8749 23.2391H16.3596L15.8673 19.2555Z" fill="url(#paint3_linear_1_4709)"/>
        <path opacity="0.05" d="M26.1619 19.2555H15.8673L16.3596 23.2391H26.1619V19.2555Z" fill="black"/>
        <defs>
            <linearGradient id="paint0_linear_1_4709" x1="21.4398" y1="31.2959" x2="21.4398" y2="23.4685"
                            gradientUnits="userSpaceOnUse">
                <stop offset="0.387" stop-color="#D1D3D4" stop-opacity="0"/>
                <stop offset="1" stop-color="#D1D3D4"/>
            </linearGradient>
            <linearGradient id="paint1_linear_1_4709" x1="31.2196" y1="27.3918" x2="31.2196" y2="19.2556"
                            gradientUnits="userSpaceOnUse">
                <stop offset="0.387" stop-color="#D1D3D4" stop-opacity="0"/>
                <stop offset="1" stop-color="#D1D3D4"/>
            </linearGradient>
            <linearGradient id="paint2_linear_1_4709" x1="16.7322" y1="34.787" x2="35.5317" y2="34.787"
                            gradientUnits="userSpaceOnUse">
                <stop stop-color="#E8E7E5"/>
                <stop offset="1" stop-color="white"/>
            </linearGradient>
            <linearGradient id="paint3_linear_1_4709" x1="15.8673" y1="21.2473" x2="36.2775" y2="21.2473"
                            gradientUnits="userSpaceOnUse">
                <stop stop-color="#E8E7E5"/>
                <stop offset="1" stop-color="white"/>
            </linearGradient>
        </defs>
    </g>

    <!--    js icon-->
    <g id="js">
        <path d="M5.5 38.5L22 44L38.5 38.5L44 0H0M16.5 5.5V33H8.25L5.5 22L11 27.5V5.5M22 5.5H38.5V11H27.5V16.5H35.75L33 33H22V27.5H27.5V22H22"
              fill="#61AA00"/>
    </g>

    <!--    bootstrap icon-->
    <g id="bootstrap">
        <g clip-path="url(#clip0_1_4731)">
            <path d="M0.260956 34.5055C0.260956 37.2923 2.51997 39.551 5.30649 39.551H34.3457C37.1327 39.551 39.3914 37.292 39.3914 34.5055V5.46628C39.3914 2.67931 37.1324 0.420593 34.3459 0.420593H5.30664C2.51967 0.420593 0.260956 2.67961 0.260956 5.46613V34.5053V34.5055Z"
                  fill="#563D7C"/>
            <path d="M16.4876 17.7294V12.188H21.3653C21.8299 12.188 22.2778 12.2267 22.7091 12.3042C23.1405 12.3815 23.5222 12.5197 23.854 12.7189C24.1857 12.9181 24.4512 13.1946 24.6504 13.5484C24.8494 13.9024 24.9491 14.3559 24.9491 14.9088C24.9491 15.9044 24.6504 16.6234 24.053 17.0657C23.4558 17.5082 22.6926 17.7294 21.7634 17.7294H16.4876ZM11.2779 8.13971V31.832H22.759C23.8209 31.832 24.8551 31.6993 25.8616 31.4338C26.8681 31.1683 27.764 30.7591 28.5494 30.2061C29.3346 29.653 29.9596 28.9395 30.4241 28.0658C30.8888 27.192 31.121 26.1577 31.121 24.9632C31.121 23.481 30.7615 22.2146 30.0426 21.1639C29.3236 20.113 28.234 19.3775 26.774 18.9571C27.8358 18.4484 28.6379 17.7958 29.1799 16.9994C29.7218 16.203 29.9928 15.2076 29.9928 14.0129C29.9928 12.9069 29.8103 11.9779 29.4452 11.2257C29.0802 10.4736 28.5659 9.87077 27.9022 9.41726C27.2387 8.96374 26.4423 8.6374 25.5131 8.43838C24.584 8.23922 23.5553 8.13971 22.4271 8.13971H11.2779ZM16.4876 27.7836V21.2799H22.1616C23.2898 21.2799 24.1969 21.5397 24.8827 22.0598C25.5684 22.5796 25.9114 23.4478 25.9114 24.6645C25.9114 25.284 25.8063 25.7927 25.5961 26.1909C25.3859 26.5891 25.1039 26.9044 24.7499 27.1366C24.396 27.369 23.9867 27.5348 23.5222 27.6345C23.0575 27.7338 22.571 27.7836 22.0621 27.7836H16.4876Z"
                  fill="white"/>
        </g>
        <defs>
            <clipPath id="clip0_1_4731">
                <rect width="39.1304" height="39.1304" fill="white" transform="translate(0.260956 0.420593)"/>
            </clipPath>
        </defs>
    </g>

    <!--    linkedin icon-->
    <g id="linkedin">
        <g clip-path="url(#clip0_1_4776)">
            <path d="M27.2863 0H2.71374C1.215 0 0 1.215 0 2.71374V27.2862C0 28.785 1.215 30 2.71374 30H27.2862C28.785 30 30 28.785 30 27.2862V2.71374C30 1.215 28.785 0 27.2863 0ZM9.28327 25.904C9.28327 26.3402 8.92971 26.6937 8.49353 26.6937H5.13181C4.69563 26.6937 4.34207 26.3402 4.34207 25.904V11.8118C4.34207 11.3756 4.69563 11.022 5.13181 11.022H8.49353C8.92971 11.022 9.28327 11.3756 9.28327 11.8118V25.904ZM6.81267 9.69361C5.04887 9.69361 3.61901 8.26374 3.61901 6.49995C3.61901 4.73615 5.04887 3.30628 6.81267 3.30628C8.57647 3.30628 10.0063 4.73615 10.0063 6.49995C10.0063 8.26374 8.57654 9.69361 6.81267 9.69361ZM26.8516 25.9676C26.8516 26.3686 26.5264 26.6937 26.1254 26.6937H22.5181C22.1171 26.6937 21.7919 26.3686 21.7919 25.9676V19.3575C21.7919 18.3715 22.0812 15.0365 19.215 15.0365C16.9918 15.0365 16.5408 17.3192 16.4503 18.3436V25.9676C16.4503 26.3686 16.1252 26.6937 15.7242 26.6937H12.2352C11.8342 26.6937 11.5091 26.3686 11.5091 25.9676V11.7481C11.5091 11.3471 11.8342 11.022 12.2352 11.022H15.7242C16.1252 11.022 16.4503 11.3471 16.4503 11.7481V12.9776C17.2747 11.7404 18.4998 10.7855 21.1083 10.7855C26.8846 10.7855 26.8516 16.1821 26.8516 19.1472V25.9676Z"
                  fill="white"/>
        </g>
        <defs>
            <clipPath id="clip0_1_4776">
                <rect width="30" height="30" fill="white"/>
            </clipPath>
        </defs>
    </g>

    <!--    whatsapp icon-->
    <g id="whatsapp">
        <g clip-path="url(#clip0_1_4778)">
            <path d="M15 2C18.4762 2 21.7344 3.34959 24.1924 5.80762C26.6504 8.26574 28 11.5238 28 15C28 18.4762 26.6504 21.7343 24.1924 24.1924C21.7344 26.6504 18.4762 28 15 28C12.2899 28 9.71288 27.1814 7.51465 25.6289L6.55859 24.9541L5.50098 25.457L3.44434 26.4355L4.40918 24.1865L4.83984 23.1816L4.22656 22.2773C2.76887 20.1252 2 17.6184 2 15C2 11.5238 3.34955 8.26564 5.80762 5.80762C8.26573 3.34957 11.5238 2 15 2Z"
                  stroke="white" stroke-width="4"/>
            <path d="M22.9917 20.0766L22.5421 17.6414C22.5049 17.4403 22.349 17.282 22.1485 17.2419L18.613 16.5348C18.4488 16.5021 18.2795 16.5534 18.1613 16.6716L16.7249 18.108C14.3049 17.0236 12.9617 15.6776 11.7798 13.1536L13.2116 11.7218C13.3298 11.6036 13.3811 11.4341 13.3483 11.2701L12.6412 7.73459C12.6011 7.53403 12.4428 7.37811 12.2417 7.34096L9.80646 6.89137C9.73978 6.87906 9.6711 6.88041 9.60489 6.89547C8.96189 7.0416 8.37519 7.36557 7.90825 7.83262C7.0996 8.64127 6.79058 9.82117 7.01458 11.2449C7.39064 13.6356 8.56198 16.9627 10.7229 19.1322L10.7523 19.1615C12.9204 21.321 16.2474 22.4924 18.6381 22.8685C18.9392 22.9159 19.2294 22.9394 19.5075 22.9394C20.5442 22.9394 21.4128 22.6124 22.0504 21.9748C22.5174 21.5078 22.8415 20.9211 22.9875 20.2781C23.0026 20.212 23.0041 20.1433 22.9917 20.0766Z"
                  fill="white"/>
        </g>
        <defs>
            <clipPath id="clip0_1_4778">
                <rect width="30" height="30" fill="white"/>
            </clipPath>
        </defs>
    </g>

    <!--    twitter icon-->
    <g id="twitter">
        <path d="M0.57803 22.5003C1.84538 22.3455 3.13052 22.5122 4.39787 22.304C5.03446 22.2029 5.61758 21.9887 6.19472 21.7625C4.76679 20.8463 3.48153 19.7991 2.2857 18.5437C1.85732 18.0974 2.16666 17.3478 2.79145 17.33C3.30317 17.3537 3.80294 17.3122 4.29077 17.211C3.04718 15.6343 2.08333 13.9385 1.33366 12.0346C1.13142 11.5229 1.72634 11.0053 2.20833 11.1599C2.48795 11.273 2.77353 11.3503 3.06509 11.4098C2.17861 9.27972 1.99415 7.13186 2.48795 4.77565C2.60101 4.2342 3.31498 4.10335 3.67793 4.46033C6.52198 7.25661 10.1157 8.60133 13.9593 9.24389C13.6201 6.61404 15.4885 3.81763 17.9397 2.90129C19.9746 2.14566 22.7056 2.66335 24.0741 4.37686C24.9904 3.79972 26.2576 3.60929 27.2751 3.4308C27.8106 3.34149 28.3283 3.86515 28.0129 4.39465C27.644 5.01346 27.293 5.67381 26.9063 6.30457C27.6917 6.07246 28.5009 5.92967 29.31 5.82855C29.8931 5.75118 30.2441 6.64961 29.798 7.00659C28.8519 7.76222 27.9118 8.62495 26.9063 9.31516C26.8766 15.9968 24.925 21.6017 18.9573 25.4036C13.983 28.581 4.73694 28.0456 0.411481 23.72H0.40551C0.215076 23.6723 0.113953 23.5295 0.0782549 23.3749C-0.0882935 23.125 0.030614 22.8157 0.250775 22.6967C0.334114 22.5954 0.441208 22.518 0.57803 22.5003Z"
              fill="white"/>

    </g>

    <!--email icon-->
    <g id="email">
        <g clip-path="url(#clip0_1_4787)">
            <path d="M30 6.19559V23.8043C30 25.4282 28.6891 26.7391 27.0652 26.7391H2.93479C1.31086 26.7391 0 25.4282 0 23.8043V6.19559C0 6.14344 0 6.09124 0.00650391 6.03909C0.0847852 4.53909 1.27822 3.34559 2.77822 3.26737C2.83037 3.26086 2.88258 3.26086 2.93473 3.26086H27.0652C27.1173 3.26086 27.176 3.26086 27.2282 3.26737C28.7217 3.34565 29.9152 4.53909 29.9934 6.03258C30 6.08473 30 6.14344 30 6.19559Z"
                  fill="white"/>
            <path d="M27.2283 3.26731C27.176 3.2608 27.1175 3.2608 27.0652 3.2608H15V26.7391H27.0652C28.6891 26.7391 30 25.4282 30 23.8043V6.19559C30 6.14344 30 6.08473 29.9935 6.03252C29.9152 4.53908 28.7217 3.34559 27.2283 3.26731Z"
                  fill="white"/>
            <path d="M29.9935 6.03267C29.9152 4.53917 28.7218 3.34573 27.2283 3.26745C22.435 8.06072 19.7432 10.7525 15 15.4957C13.2006 13.6953 4.54746 5.03663 2.77828 3.2674C1.27828 3.34568 0.0847852 4.53911 0.0065625 6.03911C0 6.09132 0 6.14353 0 6.19568V23.8044C0 25.4283 1.31086 26.7392 2.93479 26.7392H3.91307V9.94568L13.6174 19.6435C13.9957 20.0283 14.4979 20.2175 15.0001 20.2175C15.5022 20.2175 16.0044 20.0283 16.3827 19.6435L26.0871 9.93917V26.7392H27.0653C28.6893 26.7392 30.0001 25.4283 30.0001 23.8044V6.19568C30 6.14353 30 6.08482 29.9935 6.03267Z"
                  fill="#303030" fill-opacity="0.57"/>
            <path d="M16.3826 19.6435L26.0869 9.93917V26.7392H27.0652C28.6891 26.7392 30 25.4283 30 23.8044V6.19568C30 6.14353 30 6.08482 29.9935 6.03261C29.9152 4.53911 28.7218 3.34568 27.2283 3.2674C22.435 8.06072 19.7432 10.7525 15 15.4957V20.2174C15.5021 20.2174 16.0044 20.0283 16.3826 19.6435Z"
                  fill="#303030" fill-opacity="0.57"/>
        </g>
        <defs>
            <clipPath id="clip0_1_4787">
                <rect width="30" height="30" fill="white"/>
            </clipPath>
        </defs>
    </g>

    //github icon
    <g id="github">
        <g clip-path="url(#clip0_1_4795)">
            <path d="M15.4995 0.812317C7.21661 0.812317 0.5 7.55409 0.5 15.8728C0.5 22.5255 4.79726 28.1704 10.76 30.1615C11.5095 30.3004 11.7829 29.8354 11.7829 29.4357C11.7829 29.0786 11.7698 28.1317 11.7626 26.8746C7.58919 27.7857 6.70903 24.8559 6.70903 24.8559C6.02774 23.1159 5.04452 22.6538 5.04452 22.6538C3.68194 21.7189 5.1471 21.7368 5.1471 21.7368C6.65194 21.8428 7.44403 23.2896 7.44403 23.2896C8.78339 25.5909 10.956 24.9255 11.8105 24.5399C11.9455 23.5673 12.334 22.903 12.7623 22.527C9.43226 22.1462 5.93097 20.8552 5.93097 15.0851C5.93097 13.4413 6.515 12.0967 7.47452 11.0428C7.31919 10.662 6.80484 9.13151 7.62064 7.05861C7.62064 7.05861 8.88064 6.65409 11.7456 8.60216C12.9423 8.26828 14.2255 8.10135 15.5015 8.09457C16.7745 8.10135 18.0587 8.2678 19.2573 8.60216C22.1198 6.65409 23.3779 7.05861 23.3779 7.05861C24.1956 9.13151 23.6813 10.662 23.5265 11.0428C24.4884 12.0967 25.069 13.4409 25.069 15.0851C25.069 20.8697 21.5619 22.1423 18.2203 22.5159C18.7589 22.9809 19.2384 23.8993 19.2384 25.3049C19.2384 27.3188 19.2205 28.9417 19.2205 29.4357C19.2205 29.8393 19.491 30.3081 20.2516 30.1596C26.2066 28.1646 30.5 22.5236 30.5 15.8728C30.5 7.55409 23.7834 0.812317 15.4995 0.812317Z"
                  fill="white"/>
            <path d="M15.4995 0.812317C7.21661 0.812317 0.5 7.55409 0.5 15.8728C0.5 22.5255 4.79726 28.1704 10.76 30.1615C11.5095 30.3004 11.7829 29.8354 11.7829 29.4357C11.7829 29.0786 11.7698 28.1317 11.7626 26.8746C7.58919 27.7857 6.70903 24.8559 6.70903 24.8559C6.02774 23.1159 5.04452 22.6538 5.04452 22.6538C3.68194 21.7189 5.1471 21.7368 5.1471 21.7368C6.65194 21.8428 7.44403 23.2896 7.44403 23.2896C8.78339 25.5909 10.956 24.9255 11.8105 24.5399C11.9455 23.5673 12.334 22.903 12.7623 22.527C9.43226 22.1462 5.93097 20.8552 5.93097 15.0851C5.93097 13.4413 6.515 12.0967 7.47452 11.0428C7.31919 10.662 6.80484 9.13151 7.62064 7.05861C7.62064 7.05861 8.88064 6.65409 11.7456 8.60216C12.9423 8.26828 14.2255 8.10135 15.5015 8.09457C16.7745 8.10135 18.0587 8.2678 19.2573 8.60216C22.1198 6.65409 23.3779 7.05861 23.3779 7.05861C24.1956 9.13151 23.6813 10.662 23.5265 11.0428C24.4884 12.0967 25.069 13.4409 25.069 15.0851C25.069 20.8697 21.5619 22.1423 18.2203 22.5159C18.7589 22.9809 19.2384 23.8993 19.2384 25.3049C19.2384 27.3188 19.2205 28.9417 19.2205 29.4357C19.2205 29.8393 19.491 30.3081 20.2516 30.1596C26.2066 28.1646 30.5 22.5236 30.5 15.8728C30.5 7.55409 23.7834 0.812317 15.4995 0.812317Z"
                  fill="white"/>
            <path d="M23.3929 7.10059C24.1869 9.15123 23.6803 10.6648 23.526 11.0427C24.4879 12.0966 25.0686 13.4407 25.0686 15.0849C25.0686 20.8696 21.5615 22.1422 18.2198 22.5157C18.7584 22.9807 19.2379 23.8991 19.2379 25.3048C19.2379 27.3187 19.22 28.9416 19.22 29.4356C19.22 29.8391 19.4905 30.308 20.2511 30.1595C26.2066 28.1645 30.5 22.5235 30.5 15.8727C30.5 14.0848 30.1884 12.3709 29.6189 10.7799C27.5508 8.60252 25.249 7.15236 23.3929 7.10059Z"
                  fill="white"/>
            <path d="M12.1719 23.3219C12.3403 22.9823 12.546 22.7181 12.7623 22.5269C10.9371 22.3179 9.06258 21.8306 7.73919 20.486C8.75726 22.1805 10.415 22.9513 12.1719 23.3219Z"
                  fill="white"/>
            <path d="M1.28097 16.888C1.28097 8.56925 7.99758 1.82748 16.2805 1.82748C20.8797 1.82748 24.9935 3.90764 27.7444 7.17958C25.0274 3.32796 20.5574 0.812317 15.4995 0.812317C7.21661 0.812317 0.5 7.55409 0.5 15.8728C0.5 19.5817 1.8379 22.9751 4.05355 25.5981C2.31113 23.1386 1.28097 20.1357 1.28097 16.888Z"
                  fill="white"/>
            <path d="M20.0189 26.3205C20.0189 24.9154 19.5394 23.9955 19.0008 23.5305C22.3424 23.158 25.85 21.8844 25.85 16.1002C25.85 14.456 25.2694 13.1123 24.3065 12.0584C24.4623 11.6776 24.9776 10.1467 24.1579 8.07425C24.1579 8.07425 24.0021 8.02634 23.6803 8.04473C24.0316 9.60763 23.6552 10.7254 23.526 11.0428C24.4879 12.0967 25.0685 13.4409 25.0685 15.0851C25.0685 20.8697 21.5615 22.1423 18.2198 22.5159C18.7584 22.9809 19.2379 23.8992 19.2379 25.3049C19.2379 27.3188 19.22 28.9417 19.22 29.4357C19.22 29.7909 19.4315 30.1959 20.0015 30.1862C20.0053 29.5054 20.0189 28.06 20.0189 26.3205Z"
                  fill="white"/>
            <path d="M7.60468 26.1448C7.91968 26.7932 8.97839 28.3464 11.7713 28.0193C11.7674 27.6777 11.7645 27.295 11.7626 26.8745C9.6079 27.3448 8.33581 26.7903 7.60468 26.1448Z"
                  fill="white"/>
            <path d="M8.14323 24.1726C8.04694 24.0274 7.86645 23.7811 7.60468 23.5349C7.77452 23.7869 7.955 23.9984 8.14323 24.1726Z"
                  fill="white"/>
        </g>
        <defs>
            <clipPath id="clip0_1_4795">
                <rect width="30" height="30" fill="white" transform="translate(0.5 0.5)"/>
            </clipPath>
        </defs>
    </g>
</svg>
